HIERARCHY
ROOT hip
{
	OFFSET 0.000000 0.000000 0.000000 
	CHANNELS 6 Xposition Yposition Zposition Zrotation Xrotation Yrotation
	JOINT abdomen
	{
		OFFSET 0.000000 3.402643 0.000000 
		CHANNELS 3 Zrotation Xrotation Yrotation
		JOINT chest
		{
			OFFSET 0.000000 8.438565 -0.680529 
			CHANNELS 3 Zrotation Xrotation Yrotation
			JOINT neck
			{
				OFFSET 0.000000 10.207942 -0.272212 
				CHANNELS 3 Zrotation Xrotation Yrotation
				JOINT head
				{
					OFFSET 0.000000 3.130431 0.000000 
					CHANNELS 3 Zrotation Xrotation Yrotation
					End Site
					{
						OFFSET 0.000000 3.130435 0.000000 
					}
				}
			}
			JOINT lCollar
			{
				OFFSET 3.470700 6.669187 -0.816635 
				CHANNELS 3 Zrotation Xrotation Yrotation
				JOINT lShldr
				{
					OFFSET 3.198488 0.000000 0.000000 
					CHANNELS 3 Zrotation Xrotation Yrotation
					JOINT lForeArm
					{
						OFFSET 10.139888 0.000000 0.000000 
						CHANNELS 3 Zrotation Xrotation Yrotation
						JOINT lHand
						{
							OFFSET 8.370511 0.000000 0.000000 
							CHANNELS 3 Zrotation Xrotation Yrotation
							End Site
							{
								OFFSET 4.083176 0.000000 0.000000 
							}
						}
					}
				}
			}
			JOINT rCollar
			{
				OFFSET -3.470700 6.669187 -0.816635 
				CHANNELS 3 Zrotation Xrotation Yrotation
				JOINT rShldr
				{
					OFFSET -3.198488 0.000000 0.000000 
					CHANNELS 3 Zrotation Xrotation Yrotation
					JOINT rForeArm
					{
						OFFSET -10.139888 0.000000 0.000000 
						CHANNELS 3 Zrotation Xrotation Yrotation
						JOINT rHand
						{
							OFFSET -8.370511 0.000000 0.000000 
							CHANNELS 3 Zrotation Xrotation Yrotation
							End Site
							{
								OFFSET -4.083176 0.000000 0.000000 
							}
						}
					}
				}
			}
		}
	}
	JOINT lThigh
	{
		OFFSET 5.308129 -1.633274 1.361059 
		CHANNELS 3 Zrotation Xrotation Yrotation
		JOINT lShin
		{
			OFFSET -2.041588 -20.007561 0.000000 
			CHANNELS 3 Zrotation Xrotation Yrotation
			JOINT lFoot
			{
				OFFSET 0.000000 -19.190928 -1.224953 
				CHANNELS 3 Zrotation Xrotation Yrotation
				End Site
				{
					OFFSET 0.000000 -2.449906 4.627600 
				}
			}
		}
	}
	JOINT rThigh
	{
		OFFSET -5.308129 -1.633274 1.361059 
		CHANNELS 3 Zrotation Xrotation Yrotation
		JOINT rShin
		{
			OFFSET 2.041588 -20.007561 0.000000 
			CHANNELS 3 Zrotation Xrotation Yrotation
			JOINT rFoot
			{
				OFFSET 0.000000 -19.190928 -1.224953 
				CHANNELS 3 Zrotation Xrotation Yrotation
				End Site
				{
					OFFSET 0.000000 -2.449906 4.627600 
				}
			}
		}
	}
}
MOTION
Frames: 15
Frame Time: 0.016667
-0.071763 41.245205 -1.912830 -1.708990 1.728510 -1.357690 -3.165280 16.767401 -1.728750 -4.124710 -15.265100 -5.696470 -11.247800 0.723996 11.547800 -0.290121 6.533060 5.802600 -1.998780 -0.069785 1.998780 -77.461403 -2.915190 6.880950 1.645670 -2.345690 -75.972397 -0.088698 19.225000 0.062760 1.998780 -0.069785 -1.998780 67.952599 -30.870600 -16.951000 1.890790 1.864820 92.235100 0.095476 -7.626980 -0.132839 8.010978 -23.825600 6.871620 2.442730 49.059399 1.686850 -3.463560 -11.938100 -14.199900 -1.478809 -17.376902 -16.150200 -2.460120 42.055500 -1.546500 -0.337487 -18.987499 -2.931010 
-0.264579 41.278404 -2.277850 -2.646480 2.607420 0.605146 -2.829720 16.226299 -2.295180 -3.966240 -15.338100 -6.637930 -11.695500 -0.141309 11.889200 -0.446624 6.298290 6.008850 -1.998780 -0.069785 1.998780 -76.077698 -2.141940 4.601230 1.649130 -2.384010 -77.426804 -0.087997 20.016001 0.060907 1.998780 -0.069785 -1.998780 68.414497 -30.870100 -16.283501 1.891170 1.870320 92.391197 0.095480 -7.617000 -0.132819 9.480210 -26.904301 6.177881 2.370130 51.916599 1.807510 -3.197670 -10.001500 -15.341800 -1.072109 -18.382601 -18.272251 -2.428660 40.714500 -1.571710 -0.156175 -18.273701 -2.318060 
-0.413700 41.493305 -2.593150 -3.242180 3.554690 1.982190 -2.113760 15.787600 -2.780870 -3.668260 -15.649300 -7.157130 -12.175000 -1.346410 11.955600 -0.768788 5.701680 6.138760 -1.998780 -0.069785 1.998780 -74.483498 -1.331810 2.042550 1.652210 -2.435050 -79.359497 -0.088086 19.917999 0.061137 1.998780 -0.069785 -1.998780 68.023804 -30.306700 -16.725401 1.891990 1.883730 92.771797 0.093610 -7.997980 -0.143475 10.265471 -28.968700 5.464441 2.263550 53.559502 1.956590 -3.270790 -9.068930 -17.179100 -1.182607 -18.982199 -20.302193 -2.372170 38.638699 -1.585460 0.141079 -17.132799 -1.334660 
-0.547469 41.807804 -2.888220 -3.671880 4.404300 3.007760 -1.354170 15.668400 -3.106830 -3.252520 -15.712400 -7.281300 -12.381700 -2.048460 11.914100 -0.914906 5.378970 6.168490 -1.998780 -0.069785 1.998780 -72.644699 -0.348678 -1.267020 1.653640 -2.501660 -81.878197 -0.088069 19.938000 0.061091 1.998780 -0.069785 -1.998780 67.843300 -29.934401 -16.490601 1.891700 1.878910 92.635101 0.095145 -8.407980 -0.134483 10.704401 -29.720699 5.436090 2.133790 55.054901 2.101110 -3.828210 -11.016400 -16.793400 -1.360109 -19.113703 -21.940475 -2.328160 35.933998 -1.572890 0.448339 -15.576900 -0.219602 
-0.644793 42.179104 -3.153990 -3.974610 5.117190 3.895980 -0.820983 16.130800 -3.412050 -3.006700 -15.261900 -7.523040 -12.426900 -1.440500 12.098000 -0.857565 5.857670 6.203590 -1.998780 -0.069785 1.998780 -69.911003 -0.215689 -7.145050 1.653560 -2.516380 -82.434601 -0.087659 20.386999 0.060031 1.998780 -0.069785 -1.998780 69.327499 -30.693199 -13.846600 1.886850 1.815380 90.829803 0.095310 -8.026980 -0.133680 10.881421 -29.233200 5.986791 2.031570 57.205101 2.235090 -3.742680 -13.748900 -13.315600 -1.620708 -18.843298 -23.296734 -2.271790 32.855499 -1.524680 0.567067 -13.532000 0.455943 
-0.711521 42.515106 -3.442080 -4.248050 6.289070 4.570140 -0.313617 15.839600 -3.688330 -2.845460 -15.661600 -7.764700 -12.027400 -1.904070 12.194800 -0.797710 5.535580 6.287250 -1.998780 -0.069785 1.998780 -67.352501 -0.423910 -11.277300 1.653220 -2.536520 -83.196098 -0.087295 20.778000 0.059104 1.998780 -0.069785 -1.998780 69.441902 -30.325800 -13.498000 1.884210 1.788650 90.068604 0.095352 -7.928980 -0.133475 10.921001 -28.346100 6.868600 1.861380 59.386299 2.437190 -2.681460 -12.438700 -10.018200 -1.839107 -19.142397 -24.334545 -2.182630 29.927999 -1.538120 0.636088 -12.025300 1.149610 
-0.754388 42.721806 -3.749670 -4.599620 7.841800 5.448880 0.030310 15.634800 -3.897400 -2.655890 -16.100000 -8.009530 -12.344100 -2.795680 12.245300 -1.022220 5.212600 6.371290 -1.998780 -0.069785 1.998780 -65.223000 -0.690466 -15.311100 1.652920 -2.547620 -83.615799 -0.085978 22.125000 0.055866 1.998780 -0.069785 -1.998780 69.036102 -29.786400 -13.685300 1.885580 1.802010 90.449203 0.095123 -8.456980 -0.134586 10.735541 -27.410299 7.464561 1.738120 61.006802 2.587400 -1.396270 -8.634070 -6.437530 -2.064607 -20.120096 -25.529823 -2.052430 27.552900 -1.570570 0.820769 -10.499000 2.356780 
-0.731855 42.836105 -4.024210 -4.648440 8.779300 6.152280 0.242997 15.966700 -4.021140 -2.407400 -15.862000 -8.078560 -12.379100 -3.442530 12.284400 -0.963459 5.232330 6.376950 -1.998780 -0.069785 1.998780 -63.476799 -1.264430 -20.385201 1.653090 -2.541940 -83.401100 -0.074076 24.235001 0.050944 1.998780 -0.069785 -1.998780 69.225197 -30.341700 -12.247500 1.885650 1.802700 90.468697 0.095045 -8.632980 -0.134957 9.866131 -25.090300 7.625091 1.810630 60.906502 2.512830 -0.577377 -5.188970 -3.154040 -2.666710 -21.001692 -26.989559 -1.976790 26.509399 -1.612510 0.879442 -9.598360 3.131090 
-0.650523 42.802204 -4.301890 -4.472650 9.306640 6.113170 0.344097 15.898100 -4.007940 -2.322450 -15.808300 -7.974260 -12.795400 -4.470890 12.565000 -1.188160 5.006960 6.568420 -1.998780 -0.069785 1.998780 -62.811298 -2.044730 -23.865101 1.653380 -2.528770 -82.903198 -0.071123 26.705000 0.044619 1.998780 -0.069785 -1.998780 68.891602 -30.615200 -11.893800 1.887930 1.827390 91.171303 0.094684 -9.413980 -0.136612 8.658268 -21.801399 7.817331 2.161360 58.257401 2.104530 -0.230471 -3.315520 -0.852429 -3.111313 -21.995493 -27.294579 -1.967630 26.716700 -1.632160 0.978571 -9.499580 3.717780 
-0.538841 42.673405 -4.642530 -4.746100 10.156300 6.474220 0.434773 15.751400 -4.098510 -2.121900 -15.890300 -8.100130 -13.373500 -5.296270 12.903100 -1.442550 4.888850 6.781500 -1.998780 -0.069785 1.998780 -62.877602 -3.047510 -27.311800 1.653560 -2.485130 -81.253403 -0.067241 29.556999 0.036955 1.998780 -0.069785 -1.998780 68.134102 -30.635500 -11.451300 1.890090 1.854860 91.952003 0.094134 -10.517000 -0.138964 7.477305 -18.497900 6.887590 2.529340 52.299500 1.631780 -0.201896 -3.209220 -0.090686 -3.146013 -23.953890 -27.226055 -1.952400 27.935900 -1.691530 0.954910 -9.448830 3.691590 
-0.418913 42.457104 -5.043480 -4.814460 11.601500 6.884030 0.676843 15.613900 -4.340100 -2.080780 -16.205200 -8.461790 -13.696200 -5.995290 13.501700 -1.647990 4.800140 7.108350 -1.998780 -0.069785 1.998780 -63.563301 -4.158170 -29.438101 1.652870 -2.452340 -80.013603 -0.064320 31.471001 0.031557 1.998780 -0.069785 -1.998780 67.350601 -30.206200 -10.674900 1.891250 1.871700 92.430298 0.093561 -11.572000 -0.141231 6.093560 -16.026600 5.398010 2.781200 44.465801 1.263950 -1.117400 -9.213230 -3.752730 -3.375614 -27.201889 -26.643312 -1.938580 30.362600 -1.805520 0.873342 -9.182850 3.366520 
-0.361691 42.278305 -5.473720 -4.208980 13.437500 6.757520 1.159270 15.279200 -4.578660 -2.310950 -16.799000 -8.708130 -13.689300 -6.589970 13.950200 -1.745530 4.692320 7.369060 -1.998780 -0.069785 1.998780 -63.678699 -4.474400 -30.237700 1.651810 -2.426280 -79.027702 -0.063419 32.027000 0.029944 1.998780 -0.069785 -1.998780 66.455101 -29.506701 -10.218200 1.892120 1.886130 92.840103 0.092932 -12.646000 -0.143560 4.461330 -15.014200 4.356300 2.782660 37.849201 1.159490 -2.105670 -12.962800 -6.105440 -3.662775 -31.626299 -24.537125 -1.965990 34.451900 -1.903070 0.668898 -8.221670 2.495570 
-0.365539 42.159004 -5.836510 -2.685550 14.755900 7.187320 1.702330 15.157400 -5.053380 -3.001070 -17.037600 -9.375290 -13.634800 -7.403650 14.506700 -1.843000 4.574720 7.659060 -1.998780 -0.069785 1.998780 -63.127602 -4.780520 -30.537500 1.650420 -2.402040 -78.110001 -0.065559 30.680000 0.033815 1.998780 -0.069785 -1.998780 66.464104 -28.865000 -9.573620 1.892940 1.901610 93.279297 0.092648 -13.105000 -0.144562 2.211260 -14.565900 3.917320 2.666100 33.665298 1.192270 -2.207660 -14.773900 -5.573420 -5.087731 -35.860207 -22.819256 -1.989240 39.539799 -2.009790 0.338251 -6.833540 0.787977 
-0.403613 42.102406 -6.058050 -1.796870 14.941400 8.544840 1.801810 15.049000 -5.401060 -3.490510 -16.930500 -10.052800 -13.498700 -8.396110 14.644700 -1.851280 4.223110 7.757280 -1.998780 -0.069785 1.998780 -63.088299 -4.030650 -30.334900 1.645080 -2.340040 -75.757599 -0.066153 30.289000 0.034915 1.998780 -0.069785 -1.998780 66.369202 -28.645399 -9.933400 1.894030 1.927070 94.001404 0.092745 -12.949000 -0.144221 1.047670 -14.075200 3.797210 2.611410 31.861700 1.182780 -2.291100 -15.082000 -5.658860 -6.328671 -38.192905 -22.181934 -1.945290 43.982800 -2.144790 0.061474 -8.192030 -0.670843 
-0.391634 42.126106 -6.067580 -1.718750 14.414100 9.921770 1.377610 14.886900 -5.329770 -3.511930 -16.804600 -10.197800 -13.851300 -8.582060 14.400800 -1.889590 4.027640 7.681820 -1.998780 -0.069785 1.998780 -64.417297 -2.164830 -29.116800 1.632590 -2.249220 -72.292503 -0.065843 30.493999 0.034338 1.998780 -0.069785 -1.998780 65.904297 -29.132200 -11.281400 1.894690 1.947390 94.577202 0.092732 -12.969000 -0.144264 1.030570 -13.492700 3.876540 2.639850 31.720900 1.144570 -2.369870 -14.329800 -6.111560 -6.690352 -38.293106 -22.197186 -1.854100 47.163200 -2.310220 0.152704 -12.373100 -0.080949 
